<svg width="512" height="512" viewBox="0 0 512 512" fill="none" xmlns="http://www.w3.org/2000/svg">
<g id="noun-review-4118618 1">
<path id="Vector" d="M460 123.5H52C45.5046 123.508 39.2776 126.092 34.6847 130.685C30.0917 135.278 27.5079 141.505 27.5 148V300C27.5079 306.495 30.0917 312.722 34.6847 317.315C39.2776 321.908 45.5046 324.492 52 324.5H59.5V332C59.5079 338.495 62.0917 344.722 66.6847 349.315C71.2776 353.908 77.5046 356.492 84 356.5H158.14L188.82 387.18C189.449 387.809 190.251 388.236 191.123 388.41C191.996 388.583 192.9 388.494 193.722 388.154C194.543 387.813 195.246 387.237 195.74 386.498C196.235 385.759 196.499 384.889 196.5 384V356.5H315.5V384C315.501 384.889 315.765 385.759 316.26 386.498C316.754 387.237 317.457 387.813 318.278 388.154C319.1 388.494 320.004 388.583 320.877 388.41C321.749 388.236 322.551 387.809 323.18 387.18L353.86 356.5H428C434.495 356.492 440.722 353.908 445.315 349.315C449.908 344.722 452.492 338.495 452.5 332V324.5H460C466.495 324.492 472.722 321.908 477.315 317.315C481.908 312.722 484.492 306.495 484.5 300V148C484.492 141.505 481.908 135.278 477.315 130.685C472.722 126.092 466.495 123.508 460 123.5V123.5ZM192 347.5C191.409 347.499 190.823 347.614 190.276 347.84C189.73 348.066 189.233 348.397 188.815 348.815C188.397 349.233 188.066 349.73 187.84 350.276C187.614 350.823 187.499 351.409 187.5 352V373.14L163.18 348.82C162.764 348.401 162.268 348.068 161.722 347.842C161.176 347.615 160.591 347.499 160 347.5H84C79.89 347.497 75.949 345.863 73.0428 342.957C70.1365 340.051 68.5026 336.11 68.5 332V324.5H315.5V347.5H192ZM443.5 332C443.497 336.11 441.863 340.051 438.957 342.957C436.051 345.863 432.11 347.497 428 347.5H362.86L385.86 324.5H443.5V332ZM475.5 300C475.497 304.11 473.863 308.051 470.957 310.957C468.051 313.863 464.11 315.497 460 315.5H384C382.807 315.502 381.664 315.977 380.82 316.82L348.82 348.82L324.5 373.14V320C324.497 318.807 324.022 317.664 323.179 316.821C322.336 315.978 321.193 315.503 320 315.5H52C47.89 315.497 43.949 313.863 41.0428 310.957C38.1365 308.051 36.5026 304.11 36.5 300V148C36.5026 143.89 38.1365 139.949 41.0428 137.043C43.949 134.137 47.89 132.503 52 132.5H460C464.11 132.503 468.051 134.137 470.957 137.043C473.863 139.949 475.497 143.89 475.5 148V300Z" fill="black"/>
<path id="star" d="M129.21 211.91L108 208.83L98.54 189.65C98.1683 188.897 97.5935 188.263 96.8804 187.82C96.1674 187.377 95.3445 187.142 94.505 187.142C93.6654 187.142 92.8426 187.377 92.1296 187.82C91.4165 188.263 90.8417 188.897 90.47 189.65L81 208.83L59.83 211.91C58.9997 212.031 58.2197 212.381 57.5779 212.921C56.9362 213.462 56.4584 214.171 56.1984 214.969C55.9384 215.766 55.9065 216.621 56.1065 217.436C56.3065 218.251 56.7302 218.993 57.33 219.58L72.65 234.52L69.07 255.6C68.9288 256.427 69.0218 257.278 69.3386 258.055C69.6553 258.832 70.1832 259.506 70.8624 259.999C71.5417 260.492 72.3453 260.785 73.1825 260.845C74.0197 260.906 74.8571 260.731 75.6 260.34L94.53 250.39L113.47 260.34C114.113 260.684 114.831 260.862 115.56 260.86C116.216 260.861 116.864 260.718 117.458 260.442C118.053 260.166 118.58 259.764 119.003 259.263C119.426 258.762 119.735 258.174 119.907 257.542C120.079 256.909 120.111 256.246 120 255.6L116.38 234.52L131.7 219.58C132.3 218.994 132.723 218.252 132.924 217.438C133.124 216.624 133.093 215.77 132.835 214.973C132.576 214.175 132.099 213.466 131.459 212.925C130.818 212.384 130.039 212.032 129.21 211.91V211.91ZM108.4 229.72C107.877 230.232 107.487 230.864 107.262 231.561C107.037 232.258 106.985 232.999 107.11 233.72L109.58 248.15L96.58 241.33C95.9342 240.995 95.2174 240.82 94.49 240.82C93.7626 240.82 93.0458 240.995 92.4 241.33L79.4 248.14L82 233.71C82.125 232.989 82.0729 232.248 81.8482 231.551C81.6235 230.854 81.2329 230.222 80.71 229.71L70.18 219.5L84.66 217.4C85.3822 217.296 86.0681 217.017 86.6587 216.588C87.2492 216.16 87.7267 215.594 88.05 214.94L94.53 201.81L101 214.94C101.324 215.594 101.802 216.159 102.392 216.587C102.983 217.016 103.668 217.295 104.39 217.4L118.88 219.5L108.4 229.72Z" fill="black"/>
<path id="star" d="M209.94 211.91L188.77 208.83L179.3 189.65C178.928 188.897 178.353 188.263 177.64 187.82C176.927 187.377 176.105 187.142 175.265 187.142C174.425 187.142 173.603 187.377 172.89 187.82C172.177 188.263 171.602 188.897 171.23 189.65L161.76 208.83L140.59 211.91C139.761 212.032 138.982 212.384 138.341 212.925C137.701 213.466 137.224 214.175 136.965 214.973C136.707 215.77 136.676 216.624 136.876 217.438C137.077 218.252 137.5 218.994 138.1 219.58L153.42 234.52L149.8 255.6C149.659 256.427 149.752 257.278 150.069 258.055C150.385 258.832 150.913 259.506 151.592 259.999C152.272 260.492 153.075 260.785 153.913 260.845C154.75 260.906 155.587 260.731 156.33 260.34L175.27 250.39L194.2 260.34C194.943 260.731 195.78 260.906 196.617 260.845C197.455 260.785 198.258 260.492 198.938 259.999C199.617 259.506 200.145 258.832 200.461 258.055C200.778 257.278 200.871 256.427 200.73 255.6L197.11 234.52L212.43 219.58C213.03 218.994 213.453 218.252 213.654 217.438C213.854 216.624 213.823 215.77 213.565 214.973C213.306 214.175 212.829 213.466 212.189 212.925C211.548 212.384 210.769 212.032 209.94 211.91V211.91ZM189.14 229.72C188.615 230.231 188.223 230.863 187.996 231.56C187.77 232.256 187.716 232.998 187.84 233.72L190.32 248.14L177.32 241.33C176.672 240.995 175.954 240.82 175.225 240.82C174.496 240.82 173.778 240.995 173.13 241.33L160.13 248.14L162.61 233.72C162.735 232.998 162.683 232.256 162.456 231.559C162.23 230.862 161.836 230.23 161.31 229.72L150.91 219.5L165.4 217.4C166.121 217.293 166.806 217.014 167.396 216.585C167.987 216.157 168.465 215.593 168.79 214.94L175.27 201.81L181.75 214.94C182.072 215.593 182.548 216.158 183.137 216.586C183.726 217.015 184.41 217.294 185.13 217.4L199.62 219.5L189.14 229.72Z" fill="black"/>
<path id="star" d="M290.67 211.91L269.5 208.83L260 189.65C259.627 188.898 259.051 188.264 258.337 187.822C257.623 187.379 256.8 187.145 255.96 187.145C255.12 187.145 254.297 187.379 253.583 187.822C252.869 188.264 252.293 188.898 251.92 189.65L242.46 208.83L221.29 211.91C220.458 212.027 219.675 212.375 219.031 212.915C218.386 213.456 217.907 214.166 217.646 214.965C217.386 215.764 217.355 216.62 217.557 217.436C217.759 218.252 218.186 218.995 218.79 219.58L234.11 234.52L230.5 255.6C230.356 256.427 230.447 257.278 230.762 258.056C231.077 258.834 231.604 259.508 232.283 260.001C232.962 260.495 233.766 260.788 234.603 260.848C235.44 260.908 236.278 260.732 237.02 260.34L256 250.39L274.94 260.34C275.583 260.684 276.301 260.862 277.03 260.86C277.685 260.859 278.332 260.716 278.925 260.439C279.519 260.162 280.045 259.76 280.467 259.259C280.888 258.758 281.196 258.171 281.367 257.539C281.539 256.907 281.571 256.245 281.46 255.6L277.85 234.52L293.17 219.58C293.774 218.995 294.201 218.252 294.403 217.436C294.605 216.62 294.574 215.764 294.314 214.965C294.053 214.166 293.574 213.456 292.929 212.915C292.285 212.375 291.502 212.027 290.67 211.91V211.91ZM269.87 229.72C269.347 230.232 268.957 230.864 268.732 231.561C268.507 232.258 268.455 232.999 268.58 233.72L271.05 248.14L258.05 241.33C257.404 240.995 256.687 240.82 255.96 240.82C255.233 240.82 254.516 240.995 253.87 241.33L240.87 248.14L243.34 233.72C243.465 232.999 243.413 232.258 243.188 231.561C242.963 230.864 242.573 230.232 242.05 229.72L231.64 219.5L246.13 217.4C246.852 217.296 247.538 217.017 248.129 216.588C248.719 216.16 249.197 215.594 249.52 214.94L256 201.81L262.48 214.94C262.803 215.594 263.281 216.16 263.871 216.588C264.462 217.017 265.148 217.296 265.87 217.4L280.36 219.5L269.87 229.72Z" fill="black"/>
<path id="star" d="M371.41 211.91L350.24 208.83L340.77 189.65C340.398 188.897 339.823 188.263 339.11 187.82C338.397 187.377 337.575 187.142 336.735 187.142C335.895 187.142 335.073 187.377 334.36 187.82C333.647 188.263 333.072 188.897 332.7 189.65L323.23 208.83L302.06 211.91C301.231 212.032 300.452 212.384 299.811 212.925C299.171 213.466 298.694 214.175 298.435 214.973C298.177 215.77 298.146 216.624 298.346 217.438C298.547 218.252 298.97 218.994 299.57 219.58L314.89 234.52L311.27 255.6C311.129 256.427 311.222 257.278 311.539 258.055C311.855 258.832 312.383 259.506 313.062 259.999C313.742 260.492 314.545 260.785 315.383 260.845C316.22 260.906 317.057 260.731 317.8 260.34L336.73 250.39L355.67 260.34C356.314 260.681 357.031 260.86 357.76 260.86C358.416 260.861 359.064 260.718 359.658 260.442C360.253 260.166 360.78 259.764 361.203 259.263C361.626 258.762 361.935 258.174 362.107 257.542C362.279 256.909 362.311 256.246 362.2 255.6L358.58 234.52L373.9 219.58C374.5 218.994 374.923 218.252 375.124 217.438C375.324 216.624 375.293 215.77 375.035 214.973C374.776 214.175 374.299 213.466 373.659 212.925C373.018 212.384 372.239 212.032 371.41 211.91V211.91ZM350.61 229.72C350.084 230.23 349.69 230.862 349.464 231.559C349.237 232.256 349.185 232.998 349.31 233.72L351.79 248.14L338.79 241.33C338.142 240.995 337.424 240.82 336.695 240.82C335.966 240.82 335.248 240.995 334.6 241.33L321.6 248.14L324.08 233.72C324.204 232.998 324.15 232.256 323.924 231.56C323.697 230.863 323.305 230.231 322.78 229.72L312.38 219.5L326.87 217.4C327.59 217.294 328.274 217.015 328.863 216.586C329.452 216.158 329.928 215.593 330.25 214.94L336.73 201.81L343.21 214.94C343.535 215.593 344.013 216.157 344.604 216.585C345.194 217.014 345.879 217.293 346.6 217.4L361.09 219.5L350.61 229.72Z" fill="black"/>
<path id="star" d="M452.14 211.91L431 208.83L421.53 189.65C421.158 188.897 420.583 188.263 419.87 187.82C419.157 187.377 418.335 187.142 417.495 187.142C416.655 187.142 415.833 187.377 415.12 187.82C414.407 188.263 413.832 188.897 413.46 189.65L404 208.83L382.82 211.91C381.991 212.032 381.212 212.384 380.571 212.925C379.931 213.466 379.454 214.175 379.195 214.973C378.937 215.77 378.906 216.624 379.106 217.438C379.307 218.252 379.73 218.994 380.33 219.58L395.65 234.52L392 255.6C391.889 256.246 391.921 256.909 392.093 257.542C392.265 258.174 392.574 258.762 392.997 259.263C393.42 259.764 393.947 260.166 394.542 260.442C395.136 260.718 395.784 260.861 396.44 260.86C397.169 260.862 397.887 260.684 398.53 260.34L417.47 250.39L436.4 260.34C437.143 260.731 437.98 260.906 438.818 260.845C439.655 260.785 440.458 260.492 441.138 259.999C441.817 259.506 442.345 258.832 442.661 258.055C442.978 257.278 443.071 256.427 442.93 255.6L439.32 234.52L454.64 219.58C455.24 218.993 455.664 218.251 455.864 217.436C456.063 216.621 456.032 215.766 455.772 214.969C455.512 214.171 455.034 213.462 454.392 212.921C453.75 212.381 452.97 212.031 452.14 211.91V211.91ZM431.34 229.72C430.817 230.232 430.427 230.864 430.202 231.561C429.977 232.258 429.925 232.999 430.05 233.72L432.52 248.14L419.52 241.33C418.876 240.99 418.158 240.813 417.43 240.813C416.702 240.813 415.984 240.99 415.34 241.33L402.34 248.15L404.81 233.72C404.935 232.999 404.883 232.258 404.658 231.561C404.434 230.864 404.043 230.232 403.52 229.72L393.11 219.5L407.6 217.4C408.322 217.295 409.007 217.016 409.598 216.587C410.188 216.159 410.666 215.594 410.99 214.94L417.47 201.81L424 214.94C424.323 215.594 424.801 216.16 425.391 216.588C425.982 217.017 426.668 217.296 427.39 217.4L441.87 219.5L431.34 229.72Z" fill="black"/>
</g>
</svg>
