<svg width="275" height="308" viewBox="0 0 275 308" fill="none" xmlns="http://www.w3.org/2000/svg">
<g id="noun-comment-2132320 1">
<path id="Vector" d="M136.768 17C69.0729 17 14 78.6816 14 154.5C14 178.799 19.7164 202.593 30.5497 223.476L14.2062 284.932C13.6883 286.865 14.1631 288.96 15.4387 290.389C16.3738 291.436 17.6255 292 18.9107 292C19.3807 292 19.8507 291.925 20.311 291.769L75.1825 273.464C93.8279 285.598 115.072 292 136.768 292C204.463 292 259.536 230.318 259.536 154.5C259.536 78.6816 204.463 17 136.768 17ZM136.768 281C116.132 281 95.9428 274.705 78.3812 262.803C77.6091 262.276 76.7267 262.008 75.8395 262.008C75.3695 262.008 74.8948 262.083 74.4392 262.239L26.2096 278.325L40.5725 224.308C40.9706 222.826 40.7883 221.22 40.069 219.893C29.4419 200.224 23.8214 177.612 23.8214 154.5C23.8214 84.7456 74.4872 28 136.768 28C199.049 28 249.714 84.7456 249.714 154.5C249.714 224.254 199.049 281 136.768 281Z" fill="black"/>
<path id="heart" d="M161.315 89.7188C152.693 89.7188 144.382 92.8232 137.5 98.5488C130.618 92.8232 122.307 89.7188 113.685 89.7188C91.5819 89.7188 73.6032 109.855 73.6032 134.61C73.6032 189.406 133.141 216.75 135.673 217.889C136.258 218.152 136.881 218.281 137.5 218.281C138.162 218.281 138.824 218.131 139.447 217.83C141.974 216.605 201.397 187.274 201.397 134.61C201.397 109.855 183.418 89.7188 161.315 89.7188ZM137.433 206.75C127.65 201.771 83.4246 176.913 83.4246 134.61C83.4246 115.924 97.001 100.719 113.685 100.719C121.276 100.719 128.551 103.915 134.172 109.726C136.052 111.67 138.948 111.67 140.828 109.726C146.449 103.915 153.724 100.719 161.315 100.719C177.999 100.719 191.575 115.924 191.575 134.61C191.575 175.227 147.206 201.464 137.433 206.75Z" fill="black"/>
</g>
</svg>
